<?xml version="1.0" encoding="UTF-8" standalone="no"?>
<!DOCTYPE svg PUBLIC "-//W3C//DTD SVG 1.1//EN" "http://www.w3.org/Graphics/SVG/1.1/DTD/svg11.dtd">
<svg version="1.1" xmlns="http://www.w3.org/2000/svg" xmlns:xlink="http://www.w3.org/1999/xlink" preserveAspectRatio="xMidYMid meet" viewBox="0 0 640 640" width="512" height="512"><defs><path d="M45.08 225.22L227.5 225.22L227.5 406.54L45.08 406.54L45.08 225.22Z" id="bnm8VFNoa"></path><path d="M411.46 67.86L593.88 67.86L593.88 249.18L411.46 249.18L411.46 67.86Z" id="m6wyaXddv"></path><path d="M406.84 406.1L589.26 406.1L589.26 587.42L406.84 587.42L406.84 406.1Z" id="cu72C19PS"></path><path d="M137.74 344.23L137.75 344.23L121.69 363.3L91.96 327.98L108.01 308.92L121.69 325.16L162.5 276.7L178.55 295.77L137.74 344.23Z" id="b4JyDBFnwZ"></path><path d="M512.41 499.77L538.05 525.41L523.69 539.77L498.05 514.13L472.41 539.77L458.05 525.41L483.69 499.77L458.05 474.13L472.41 459.77L498.05 485.41L523.69 459.77L538.05 474.13L512.41 499.77Z" id="bwIAgh09k"></path><path d="M328.6 505.44L328.6 145.44" id="b6kCqJxMmx"></path><path d="M340.41 320L215.41 320" id="a42Wa9zG7b"></path><path d="M406.84 496.76L316.84 496.76" id="b1g4l8ii5A"></path><path d="M411.46 158.52L321.46 158.52" id="b4xmD0m4AH"></path><path d="M502.74 185.06L502.74 185.07L486.69 204.13L456.95 168.82L473.01 149.75L486.69 166L527.49 117.54L543.55 136.6L502.74 185.06Z" id="d1TvXZoeLw"></path></defs><g><g><g><g><use xlink:href="#bnm8VFNoa" opacity="1" fill-opacity="0" stroke="#2472bb" stroke-width="25" stroke-opacity="1"></use></g></g><g><g><use xlink:href="#m6wyaXddv" opacity="1" fill-opacity="0" stroke="#2472bb" stroke-width="25" stroke-opacity="1"></use></g></g><g><g><use xlink:href="#cu72C19PS" opacity="1" fill-opacity="0" stroke="#2472bb" stroke-width="25" stroke-opacity="1"></use></g></g><g><use xlink:href="#b4JyDBFnwZ" opacity="1" fill="#000000" fill-opacity="1"></use></g><g><use xlink:href="#bwIAgh09k" opacity="1" fill="#ff0000" fill-opacity="1"></use></g><g><g><use xlink:href="#b6kCqJxMmx" opacity="1" fill-opacity="0" stroke="#2472bb" stroke-width="25" stroke-opacity="1"></use></g></g><g><g><use xlink:href="#a42Wa9zG7b" opacity="1" fill-opacity="0" stroke="#2472bb" stroke-width="25" stroke-opacity="1"></use></g></g><g><g><use xlink:href="#b1g4l8ii5A" opacity="1" fill-opacity="0" stroke="#2472bb" stroke-width="25" stroke-opacity="1"></use></g></g><g><g><use xlink:href="#b4xmD0m4AH" opacity="1" fill-opacity="0" stroke="#2472bb" stroke-width="25" stroke-opacity="1"></use></g></g><g><use xlink:href="#d1TvXZoeLw" opacity="1" fill="#000000" fill-opacity="1"></use></g></g></g></svg>